<svg width="18" height="18" viewBox="0 0 18 18" fill="none" xmlns="http://www.w3.org/2000/svg">
<path fill-rule="evenodd" clip-rule="evenodd" d="M1.23701 7.5446C6.06722 5.44013 9.28817 4.05273 10.8997 3.38246C15.5011 1.4686 16.4573 1.13612 17.0804 1.12512C17.2175 1.12272 17.524 1.1567 17.7225 1.3178C18.017 1.55675 18.0187 2.07544 17.986 2.41873C17.7366 5.03872 16.6577 11.3967 16.1087 14.3311C15.8764 15.5727 15.4191 15.9891 14.9764 16.0298C14.0142 16.1183 13.2836 15.3939 12.3516 14.783C10.8934 13.8271 10.0695 13.232 8.65394 12.2992C7.01807 11.2212 8.07856 10.6287 9.01083 9.6604C9.25483 9.40701 13.4943 5.55088 13.5763 5.20105C13.5866 5.15729 13.5961 4.99419 13.4992 4.90811C13.4023 4.82203 13.2594 4.85141 13.1562 4.87484C13.0099 4.90805 10.6803 6.44787 6.16729 9.49425C5.50601 9.94835 4.90707 10.1696 4.37045 10.158C3.77881 10.1452 2.64085 9.8235 1.79486 9.54849C0.757221 9.21122 -0.0674798 9.03284 0.00436272 8.46004C0.0417726 8.16161 0.452634 7.8565 1.23701 7.5446Z" fill="white"/>
</svg>
